<svg xmlns="http://www.w3.org/2000/svg" width="297" height="282" viewBox="0 0 297 282" version="1.1"><path d="M 0 0.596 C 0 2.097, 197.108 281, 198.169 281 C 198.626 281, 198.985 258.163, 198.968 230.250 L 198.935 179.500 185.585 160.500 L 172.235 141.500 200.867 140.889 C 216.615 140.553, 231.812 140.215, 234.637 140.139 C 239.688 140.002, 240.198 139.680, 265.137 120.857 C 294.642 98.588, 296.090 97.423, 295.278 96.611 C 294.942 96.275, 266.167 96, 231.333 96 L 168 96 167.868 99.250 C 167.795 101.037, 167.457 109.440, 167.118 117.922 L 166.500 133.344 119.959 66.922 L 73.419 0.500 36.709 0.238 C 16.519 0.093, 0 0.255, 0 0.596 M 84.653 97.924 L 76.806 98.500 90.943 118.750 L 105.079 139 119.789 138.882 C 127.880 138.817, 140.487 138.479, 147.803 138.132 L 161.107 137.500 147.230 117.500 L 133.352 97.500 112.926 97.424 C 101.692 97.382, 88.969 97.607, 84.653 97.924 M 167.661 168.267 C 167.300 179.395, 167.011 197.050, 167.017 207.500 L 167.029 226.500 179.264 243.876 L 191.500 261.253 192.158 221.876 L 192.816 182.500 184.724 171 C 180.273 164.675, 174.761 156.920, 172.474 153.767 L 168.316 148.035 167.661 168.267" stroke="none" fill="#0e4194" fill-rule="evenodd"/></svg>