<svg xmlns="http://www.w3.org/2000/svg" width="1400" height="282" viewBox="0 0 1400 282" version="1.1"><path d="M 1.561 2.750 C 4.257 6.891, 197.138 280.353, 198.136 281.450 C 198.623 281.985, 199 260.132, 199 231.405 L 199 180.409 185.018 160.455 L 171.036 140.500 205.072 140.237 L 239.109 139.974 266.996 118.985 C 282.335 107.441, 295.162 97.547, 295.501 96.998 C 295.909 96.338, 274.441 96, 232.080 96 L 168.042 96 167.771 115.725 L 167.500 135.450 120.038 67.725 L 72.576 -0 36.173 -0 L -0.230 0 1.561 2.750 M 76.167 97.939 C 76.350 98.455, 82.800 107.882, 90.500 118.888 L 104.500 138.898 133.333 138.949 C 149.623 138.978, 162.022 138.616, 161.833 138.117 C 161.650 137.631, 155.200 128.196, 147.500 117.150 L 133.500 97.066 104.667 97.033 C 87.108 97.013, 75.964 97.367, 76.167 97.939 M 167 186.343 L 167 227.087 179.750 245.200 L 192.500 263.312 192.761 222.690 L 193.022 182.067 180.879 164.783 C 174.201 155.278, 168.346 147.072, 167.868 146.550 C 167.376 146.011, 167 163.240, 167 186.343 M 296.750 180.532 C 296.337 180.973, 296 203.983, 296 231.667 L 296 282 848 282 L 1400 282 1400 231.500 L 1400 181 898.164 181 C 622.155 181, 374.092 180.714, 346.914 180.366 C 319.736 180.017, 297.163 180.092, 296.750 180.532 M 361 195.138 C 346.653 196.626, 335.708 203.753, 330.016 215.315 C 324.159 227.214, 325.180 241.839, 332.629 252.720 C 343.698 268.889, 371.659 273.974, 388.109 262.810 C 395.909 257.516, 395.900 256.892, 387.946 251.603 C 381.067 247.029, 380.993 247.007, 379.058 248.942 C 375.076 252.924, 371.050 254.229, 363.976 253.829 C 358.605 253.525, 356.433 252.879, 353.161 250.611 C 341.580 242.586, 340.758 223.119, 351.621 214.159 C 359.493 207.666, 372.140 207.339, 378.963 213.453 C 380.295 214.646, 381.340 214.156, 386.791 209.789 C 392.809 204.965, 393.008 204.666, 391.382 202.870 C 386.359 197.319, 372.928 193.901, 361 195.138 M 434.500 195.138 C 424.164 196.334, 417.240 199.586, 410.332 206.488 C 404.973 211.843, 403.873 213.609, 401.947 219.949 C 397.754 233.753, 400.907 247.959, 410.232 257.285 C 426.106 273.159, 458.512 272.459, 473.381 255.921 C 479.562 249.046, 482.232 241.658, 482.207 231.500 C 482.147 206.934, 462.430 191.906, 434.500 195.138 M 743.776 195.072 C 730.718 196.544, 719.648 203.627, 713.934 214.166 C 710.614 220.290, 710.500 220.865, 710.500 231.500 C 710.500 241.496, 710.753 243.015, 713.270 248.142 C 720.562 262.988, 739.124 271.205, 758.550 268.185 C 772.897 265.954, 782.744 259.329, 788.208 248.229 C 791.267 242.016, 791.500 240.832, 791.500 231.521 C 791.500 222.815, 791.160 220.778, 788.906 216 C 783.814 205.207, 771.988 196.787, 760.112 195.502 C 757.025 195.168, 753.600 194.764, 752.500 194.604 C 751.400 194.444, 747.474 194.655, 743.776 195.072 M 913.445 195.068 C 903.865 196.330, 896.061 201.256, 892.199 208.479 C 891.232 210.288, 890.567 213.979, 890.542 217.677 C 890.472 227.923, 894.560 231.689, 912.090 237.530 C 920.117 240.205, 923.503 241.838, 924.650 243.589 C 930.276 252.175, 914.488 257.866, 903.817 251.099 L 899.242 248.197 893.450 254.050 L 887.659 259.903 890.079 261.928 C 895.327 266.319, 902.857 268.396, 913.500 268.390 C 921.761 268.385, 924.411 267.982, 928.742 266.072 C 940.862 260.728, 946.168 248.176, 940.904 237.302 C 938.311 231.946, 932.968 228.626, 921.678 225.357 C 911.242 222.336, 908.500 220.366, 908.500 215.892 C 908.500 213.015, 909.032 212.234, 912 210.752 C 916.634 208.436, 922.668 208.537, 927.518 211.009 L 931.460 213.019 936.980 207.473 L 942.500 201.926 940.003 200.022 C 934.813 196.066, 922.835 193.831, 913.445 195.068 M 1045.228 195.058 C 1031.516 196.954, 1022 206.183, 1022 217.584 C 1022 227.398, 1027.468 232.337, 1044.175 237.615 C 1053.474 240.553, 1056.653 242.332, 1057.528 245.089 C 1059.187 250.315, 1054.313 254, 1045.745 254 C 1041.555 254, 1039.397 253.369, 1035.817 251.099 L 1031.242 248.197 1025.371 254.145 L 1019.500 260.092 1022 262.035 C 1028.909 267.403, 1042.769 270.079, 1053.209 268.060 C 1068.053 265.189, 1076.423 254.977, 1074.491 242.094 C 1073.399 234.810, 1067.766 229.916, 1056.488 226.454 C 1042.118 222.041, 1040.043 220.696, 1040.015 215.773 C 1039.982 209.906, 1050.202 207.226, 1058.540 210.915 L 1063.381 213.056 1068.690 207.812 C 1071.611 204.928, 1074 202.223, 1074 201.801 C 1074 200.412, 1064.253 196.062, 1059.833 195.478 C 1051.395 194.363, 1050.446 194.336, 1045.228 195.058 M 1338.800 195.166 C 1323.940 197.120, 1315.137 206.574, 1316.203 219.432 C 1316.952 228.470, 1321.240 232.206, 1336.482 237.103 C 1346.075 240.185, 1352 243.964, 1352 247 C 1352 247.635, 1350.685 249.469, 1349.077 251.077 C 1346.539 253.615, 1345.413 254, 1340.527 254 C 1335.038 254, 1330.354 252.383, 1326.787 249.258 C 1325.226 247.890, 1324.608 248.268, 1319.787 253.542 C 1316.879 256.724, 1314.500 259.816, 1314.500 260.414 C 1314.500 262.415, 1324.594 266.937, 1331.833 268.178 C 1345.227 270.475, 1358.706 266.340, 1364.445 258.175 C 1366.805 254.817, 1367.492 252.638, 1367.821 247.469 C 1368.608 235.117, 1364.646 230.831, 1347.490 225.476 C 1338.474 222.661, 1335.602 221.323, 1334.293 219.324 C 1332.798 217.043, 1332.776 216.489, 1334.090 214.149 C 1337.108 208.773, 1345.040 207.474, 1352.949 211.062 L 1357.398 213.080 1362.918 207.560 C 1368.245 202.233, 1368.369 201.988, 1366.469 200.542 C 1360.616 196.088, 1348.980 193.827, 1338.800 195.166 M 494 231.500 L 494 267 502.483 267 L 510.965 267 511.233 242.352 L 511.500 217.705 527.903 242.352 L 544.306 267 555.153 267 L 566 267 566 231.460 L 566 195.919 557.750 196.210 L 549.500 196.500 549 220.421 L 548.500 244.342 532.652 220.171 L 516.803 196 505.402 196 L 494 196 494 231.500 M 575 203 L 575 210 586 210 L 597 210 597 238.500 L 597 267 605.500 267 L 614 267 614 238.500 L 614 210 624.500 210 L 635 210 635 203 L 635 196 605 196 L 575 196 575 203 M 644 231.396 L 644 267 652.500 267 L 661 267 661 252.943 L 661 238.885 665.162 239.193 L 669.324 239.500 676.547 252.335 C 680.520 259.394, 684.199 265.599, 684.723 266.123 C 685.247 266.647, 689.999 266.947, 695.283 266.788 L 704.890 266.500 695.493 252.090 L 686.096 237.680 690.915 235.448 C 698.155 232.094, 701.372 227.260, 701.788 219.110 C 702.338 208.344, 697.335 201.103, 687.118 197.880 C 685.128 197.252, 674.612 196.525, 663.750 196.265 L 644 195.791 644 231.396 M 804 231.500 L 804 267 828 267 L 852 267 852 260 L 852 253 836.500 253 L 821 253 821 224.500 L 821 196 812.500 196 L 804 196 804 231.500 M 946 196.567 C 946 196.918, 952.300 206.112, 960 217 L 974 236.796 974 251.898 L 974 267 982.500 267 L 991 267 991 251.944 L 991 236.889 1004.976 217.194 C 1012.663 206.362, 1018.963 197.162, 1018.976 196.750 C 1018.989 196.338, 1014.710 196, 1009.466 196 L 999.933 196 991.398 209.099 C 986.704 216.303, 982.557 221.893, 982.182 221.520 C 981.807 221.148, 978.108 215.366, 973.963 208.672 L 966.427 196.500 956.213 196.215 C 950.596 196.058, 946 196.217, 946 196.567 M 1080 202.985 L 1080 210 1091 210 L 1102 210 1102 238.500 L 1102 267 1110.500 267 L 1119 267 1119 238.500 L 1119 210 1130.046 210 L 1141.091 210 1140.796 203.250 L 1140.500 196.500 1110.250 196.235 L 1080 195.971 1080 202.985 M 1150 231.500 L 1150 267 1177 267 L 1204 267 1204 260 L 1204 253 1185.500 253 L 1167 253 1167 245.500 L 1167 238 1183.500 238 L 1200 238 1200 231 L 1200 224 1183.500 224 L 1167 224 1167 217.500 L 1167 211 1184.500 211 L 1202 211 1202 203.500 L 1202 196 1176 196 L 1150 196 1150 231.500 M 1217 231.500 L 1217 267 1225.484 267 L 1233.967 267 1234.234 240.328 L 1234.500 213.656 1243.940 240.328 L 1253.381 267 1259.940 266.991 L 1266.500 266.983 1275.918 241.241 C 1281.098 227.084, 1285.710 215.072, 1286.168 214.550 C 1286.626 214.027, 1287 225.615, 1287 240.300 L 1287 267 1295.513 267 L 1304.026 267 1303.763 231.750 L 1303.500 196.500 1290.865 196.221 L 1278.231 195.942 1274.249 206.221 C 1272.060 211.874, 1268.099 222.244, 1265.449 229.265 C 1262.798 236.285, 1260.338 241.685, 1259.983 241.265 C 1259.627 240.844, 1255.557 230.488, 1250.937 218.250 L 1242.538 196 1229.769 196 L 1217 196 1217 231.500 M 433.994 209.934 C 423.290 213.190, 418 220.491, 418 232.008 C 418 245.535, 427.104 254, 441.652 254 C 456.643 254, 466.391 243.391, 464.679 228.939 C 463.237 216.766, 453.789 208.842, 441.007 209.086 C 438.528 209.133, 435.372 209.515, 433.994 209.934 M 741.511 210.601 C 725.977 216.286, 722.197 239.619, 735.241 249.304 C 745.778 257.127, 763.539 255.045, 770.371 245.186 C 775.090 238.377, 775.645 227.924, 771.690 220.340 C 766.799 210.962, 752.836 206.456, 741.511 210.601 M 661 218.150 L 661 226.299 670.052 225.657 C 675.031 225.304, 679.971 224.551, 681.029 223.984 C 685.951 221.350, 685.914 214.041, 680.966 211.483 C 679.089 210.512, 675.149 210, 669.550 210 L 661 210 661 218.150" stroke="none" fill="#0e4194" fill-rule="evenodd"/><path d="M 1306.152 15.129 C 1253.801 19.430, 1219.699 46.644, 1222.353 82 C 1224.176 106.282, 1241.877 125.405, 1271.701 135.312 C 1289.775 141.316, 1298.312 142.472, 1324.500 142.460 C 1352.762 142.447, 1370.179 140.229, 1392.750 133.767 L 1400 131.692 1400 99.346 L 1400 67 1363.470 67 L 1326.940 67 1327.220 79.750 L 1327.500 92.500 1343.750 92.775 L 1360 93.050 1360 102.486 L 1360 111.923 1355.876 113.033 C 1338.998 117.578, 1315.513 118.427, 1301.253 115.009 C 1281.870 110.362, 1270.152 100.560, 1266.381 85.841 C 1262.463 70.549, 1270.570 55.718, 1287.322 47.529 C 1299.236 41.705, 1305.365 40.523, 1323.500 40.552 C 1341.738 40.582, 1347.902 41.772, 1360.119 47.623 L 1367.738 51.273 1381.371 41.537 C 1388.870 36.183, 1395.251 31.403, 1395.552 30.916 C 1397.045 28.500, 1378.679 21.190, 1363.250 18.060 C 1353.914 16.166, 1328.902 13.878, 1320.500 14.149 C 1318.300 14.220, 1311.843 14.661, 1306.152 15.129 M 299.772 28.767 C 289.472 35.220, 281.034 40.837, 281.022 41.250 C 281.010 41.663, 294.950 42, 312 42 L 343 42 343 91 L 343 140 364 140 L 385 140 385 91 L 385 42 411.531 42 L 438.062 42 437.781 29.750 L 437.500 17.500 378 17.267 L 318.500 17.033 299.772 28.767 M 449 78.500 L 449 140 514.530 140 L 580.060 140 579.780 127.250 L 579.500 114.500 534.750 114.240 L 490 113.979 490 102.490 L 490 91 530 91 L 570 91 570 78 L 570 65 530 65 L 490 65 490 54 L 490 43 532.500 43 L 575 43 575 30 L 575 17 512 17 L 449 17 449 78.500 M 601.667 17.667 C 601.300 18.033, 601 45.708, 601 79.167 L 601 140 622 140 L 643 140 643 115.500 L 643 91 652.498 91 L 661.995 91 681.490 115.500 L 700.984 140 725.492 140 C 738.971 140, 750 139.748, 750 139.440 C 750 139.132, 739.644 127.561, 726.986 113.726 L 703.972 88.572 710.736 87.211 C 725.371 84.266, 738.023 75.250, 741.390 65.368 C 743.450 59.324, 743.450 49.676, 741.390 43.632 C 739.203 37.214, 732.030 30.071, 723.849 26.167 C 714.277 21.598, 702.151 19.062, 684.763 17.992 C 667.290 16.916, 602.670 16.663, 601.667 17.667 M 760.667 17.667 C 760.300 18.033, 760 45.708, 760 79.167 L 760 140 803.039 140 C 826.857 140, 850.347 139.524, 855.637 138.934 C 880.856 136.122, 898.537 127.574, 904.110 115.500 C 908.324 106.370, 905.114 93.427, 897.052 87.041 C 891.518 82.658, 881.904 78.397, 874.322 76.966 L 867.692 75.715 873.298 73.981 C 897.690 66.434, 905.316 45.360, 888.992 30.612 C 880.807 23.217, 866.855 19.369, 843.204 17.983 C 825.057 16.920, 761.657 16.677, 760.667 17.667 M 921 78.492 L 921 140 986.530 140 L 1052.060 140 1051.780 127.250 L 1051.500 114.500 1006.750 114.240 L 962 113.979 962 102.490 L 962 91 1002 91 L 1042 91 1042 78 L 1042 65 1002 65 L 962 65 962 54 L 962 43 1004.530 43 L 1047.060 43 1046.780 30.250 L 1046.500 17.500 983.750 17.242 L 921 16.985 921 78.492 M 1073.750 17.551 C 1073.338 17.981, 1073 45.708, 1073 79.167 L 1073 140 1094 140 L 1115 140 1115 115.500 L 1115 91 1124.459 91 L 1133.919 91 1153.450 115.500 L 1172.980 140 1197.490 140 C 1210.971 140, 1222 139.754, 1222 139.453 C 1222 139.152, 1211.633 127.583, 1198.963 113.744 L 1175.926 88.581 1182.713 87.215 C 1196.327 84.476, 1208.002 76.743, 1212.479 67.500 C 1214.895 62.512, 1215.689 50.635, 1213.961 45.333 C 1209.570 31.864, 1196.233 23.446, 1172.959 19.453 C 1165.613 18.193, 1153.561 17.712, 1119 17.299 C 1094.525 17.008, 1074.162 17.121, 1073.750 17.551 M 643 54.388 L 643 68 659.750 67.980 C 684.415 67.951, 693.772 66.167, 698.228 60.642 C 700.820 57.429, 700.481 51.725, 697.486 48.166 C 692.994 42.827, 687.936 41.775, 664.250 41.249 L 643 40.777 643 54.388 M 802 53.397 L 802 66 820.318 66 C 843.565 66, 851.885 63.937, 854.846 57.439 C 856.762 53.234, 856.220 50.008, 853.110 47.103 C 848.244 42.557, 844.102 41.773, 822.250 41.265 L 802 40.795 802 53.397 M 1115 54.388 L 1115 68 1131.750 67.980 C 1156.415 67.951, 1165.772 66.167, 1170.228 60.642 C 1172.820 57.429, 1172.481 51.725, 1169.486 48.166 C 1164.994 42.827, 1159.936 41.775, 1136.250 41.249 L 1115 40.777 1115 54.388 M 802 102.984 L 802 116.127 826.750 115.813 C 850.841 115.508, 851.633 115.433, 856.500 113 C 865.607 108.447, 867.262 100.153, 860.041 95.260 C 854.100 91.235, 850.337 90.686, 825.750 90.256 L 802 89.841 802 102.984" stroke="none" fill="#1d1d1b" fill-rule="evenodd"/><path d="M 361 195.138 C 346.653 196.626, 335.708 203.753, 330.016 215.315 C 324.159 227.214, 325.180 241.839, 332.629 252.720 C 343.698 268.889, 371.659 273.974, 388.109 262.810 C 395.909 257.516, 395.900 256.892, 387.946 251.603 C 381.067 247.029, 380.993 247.007, 379.058 248.942 C 375.076 252.924, 371.050 254.229, 363.976 253.829 C 358.605 253.525, 356.433 252.879, 353.161 250.611 C 341.580 242.586, 340.758 223.119, 351.621 214.159 C 359.493 207.666, 372.140 207.339, 378.963 213.453 C 380.295 214.646, 381.340 214.156, 386.791 209.789 C 392.809 204.965, 393.008 204.666, 391.382 202.870 C 386.359 197.319, 372.928 193.901, 361 195.138 M 434.500 195.138 C 424.164 196.334, 417.240 199.586, 410.332 206.488 C 404.973 211.843, 403.873 213.609, 401.947 219.949 C 397.754 233.753, 400.907 247.959, 410.232 257.285 C 426.106 273.159, 458.512 272.459, 473.381 255.921 C 479.562 249.046, 482.232 241.658, 482.207 231.500 C 482.147 206.934, 462.430 191.906, 434.500 195.138 M 743.776 195.072 C 730.718 196.544, 719.648 203.627, 713.934 214.166 C 710.614 220.290, 710.500 220.865, 710.500 231.500 C 710.500 241.496, 710.753 243.015, 713.270 248.142 C 720.562 262.988, 739.124 271.205, 758.550 268.185 C 772.897 265.954, 782.744 259.329, 788.208 248.229 C 791.267 242.016, 791.500 240.832, 791.500 231.521 C 791.500 222.815, 791.160 220.778, 788.906 216 C 783.814 205.207, 771.988 196.787, 760.112 195.502 C 757.025 195.168, 753.600 194.764, 752.500 194.604 C 751.400 194.444, 747.474 194.655, 743.776 195.072 M 913.445 195.068 C 903.865 196.330, 896.061 201.256, 892.199 208.479 C 891.232 210.288, 890.567 213.979, 890.542 217.677 C 890.472 227.923, 894.560 231.689, 912.090 237.530 C 920.117 240.205, 923.503 241.838, 924.650 243.589 C 930.276 252.175, 914.488 257.866, 903.817 251.099 L 899.242 248.197 893.450 254.050 L 887.659 259.903 890.079 261.928 C 895.327 266.319, 902.857 268.396, 913.500 268.390 C 921.761 268.385, 924.411 267.982, 928.742 266.072 C 940.862 260.728, 946.168 248.176, 940.904 237.302 C 938.311 231.946, 932.968 228.626, 921.678 225.357 C 911.242 222.336, 908.500 220.366, 908.500 215.892 C 908.500 213.015, 909.032 212.234, 912 210.752 C 916.634 208.436, 922.668 208.537, 927.518 211.009 L 931.460 213.019 936.980 207.473 L 942.500 201.926 940.003 200.022 C 934.813 196.066, 922.835 193.831, 913.445 195.068 M 1045.228 195.058 C 1031.516 196.954, 1022 206.183, 1022 217.584 C 1022 227.398, 1027.468 232.337, 1044.175 237.615 C 1053.474 240.553, 1056.653 242.332, 1057.528 245.089 C 1059.187 250.315, 1054.313 254, 1045.745 254 C 1041.555 254, 1039.397 253.369, 1035.817 251.099 L 1031.242 248.197 1025.371 254.145 L 1019.500 260.092 1022 262.035 C 1028.909 267.403, 1042.769 270.079, 1053.209 268.060 C 1068.053 265.189, 1076.423 254.977, 1074.491 242.094 C 1073.399 234.810, 1067.766 229.916, 1056.488 226.454 C 1042.118 222.041, 1040.043 220.696, 1040.015 215.773 C 1039.982 209.906, 1050.202 207.226, 1058.540 210.915 L 1063.381 213.056 1068.690 207.812 C 1071.611 204.928, 1074 202.223, 1074 201.801 C 1074 200.412, 1064.253 196.062, 1059.833 195.478 C 1051.395 194.363, 1050.446 194.336, 1045.228 195.058 M 1338.800 195.166 C 1323.940 197.120, 1315.137 206.574, 1316.203 219.432 C 1316.952 228.470, 1321.240 232.206, 1336.482 237.103 C 1346.075 240.185, 1352 243.964, 1352 247 C 1352 247.635, 1350.685 249.469, 1349.077 251.077 C 1346.539 253.615, 1345.413 254, 1340.527 254 C 1335.038 254, 1330.354 252.383, 1326.787 249.258 C 1325.226 247.890, 1324.608 248.268, 1319.787 253.542 C 1316.879 256.724, 1314.500 259.816, 1314.500 260.414 C 1314.500 262.415, 1324.594 266.937, 1331.833 268.178 C 1345.227 270.475, 1358.706 266.340, 1364.445 258.175 C 1366.805 254.817, 1367.492 252.638, 1367.821 247.469 C 1368.608 235.117, 1364.646 230.831, 1347.490 225.476 C 1338.474 222.661, 1335.602 221.323, 1334.293 219.324 C 1332.798 217.043, 1332.776 216.489, 1334.090 214.149 C 1337.108 208.773, 1345.040 207.474, 1352.949 211.062 L 1357.398 213.080 1362.918 207.560 C 1368.245 202.233, 1368.369 201.988, 1366.469 200.542 C 1360.616 196.088, 1348.980 193.827, 1338.800 195.166 M 494 231.500 L 494 267 502.483 267 L 510.965 267 511.233 242.352 L 511.500 217.705 527.903 242.352 L 544.306 267 555.153 267 L 566 267 566 231.460 L 566 195.919 557.750 196.210 L 549.500 196.500 549 220.421 L 548.500 244.342 532.652 220.171 L 516.803 196 505.402 196 L 494 196 494 231.500 M 575 203 L 575 210 586 210 L 597 210 597 238.500 L 597 267 605.500 267 L 614 267 614 238.500 L 614 210 624.500 210 L 635 210 635 203 L 635 196 605 196 L 575 196 575 203 M 644 231.396 L 644 267 652.500 267 L 661 267 661 252.943 L 661 238.885 665.162 239.193 L 669.324 239.500 676.547 252.335 C 680.520 259.394, 684.199 265.599, 684.723 266.123 C 685.247 266.647, 689.999 266.947, 695.283 266.788 L 704.890 266.500 695.493 252.090 L 686.096 237.680 690.915 235.448 C 698.155 232.094, 701.372 227.260, 701.788 219.110 C 702.338 208.344, 697.335 201.103, 687.118 197.880 C 685.128 197.252, 674.612 196.525, 663.750 196.265 L 644 195.791 644 231.396 M 804 231.500 L 804 267 828 267 L 852 267 852 260 L 852 253 836.500 253 L 821 253 821 224.500 L 821 196 812.500 196 L 804 196 804 231.500 M 946 196.567 C 946 196.918, 952.300 206.112, 960 217 L 974 236.796 974 251.898 L 974 267 982.500 267 L 991 267 991 251.944 L 991 236.889 1004.976 217.194 C 1012.663 206.362, 1018.963 197.162, 1018.976 196.750 C 1018.989 196.338, 1014.710 196, 1009.466 196 L 999.933 196 991.398 209.099 C 986.704 216.303, 982.557 221.893, 982.182 221.520 C 981.807 221.148, 978.108 215.366, 973.963 208.672 L 966.427 196.500 956.213 196.215 C 950.596 196.058, 946 196.217, 946 196.567 M 1080 202.985 L 1080 210 1091 210 L 1102 210 1102 238.500 L 1102 267 1110.500 267 L 1119 267 1119 238.500 L 1119 210 1130.046 210 L 1141.091 210 1140.796 203.250 L 1140.500 196.500 1110.250 196.235 L 1080 195.971 1080 202.985 M 1150 231.500 L 1150 267 1177 267 L 1204 267 1204 260 L 1204 253 1185.500 253 L 1167 253 1167 245.500 L 1167 238 1183.500 238 L 1200 238 1200 231 L 1200 224 1183.500 224 L 1167 224 1167 217.500 L 1167 211 1184.500 211 L 1202 211 1202 203.500 L 1202 196 1176 196 L 1150 196 1150 231.500 M 1217 231.500 L 1217 267 1225.484 267 L 1233.967 267 1234.234 240.328 L 1234.500 213.656 1243.940 240.328 L 1253.381 267 1259.940 266.991 L 1266.500 266.983 1275.918 241.241 C 1281.098 227.084, 1285.710 215.072, 1286.168 214.550 C 1286.626 214.027, 1287 225.615, 1287 240.300 L 1287 267 1295.513 267 L 1304.026 267 1303.763 231.750 L 1303.500 196.500 1290.865 196.221 L 1278.231 195.942 1274.249 206.221 C 1272.060 211.874, 1268.099 222.244, 1265.449 229.265 C 1262.798 236.285, 1260.338 241.685, 1259.983 241.265 C 1259.627 240.844, 1255.557 230.488, 1250.937 218.250 L 1242.538 196 1229.769 196 L 1217 196 1217 231.500 M 433.994 209.934 C 423.290 213.190, 418 220.491, 418 232.008 C 418 245.535, 427.104 254, 441.652 254 C 456.643 254, 466.391 243.391, 464.679 228.939 C 463.237 216.766, 453.789 208.842, 441.007 209.086 C 438.528 209.133, 435.372 209.515, 433.994 209.934 M 741.511 210.601 C 725.977 216.286, 722.197 239.619, 735.241 249.304 C 745.778 257.127, 763.539 255.045, 770.371 245.186 C 775.090 238.377, 775.645 227.924, 771.690 220.340 C 766.799 210.962, 752.836 206.456, 741.511 210.601 M 661 218.150 L 661 226.299 670.052 225.657 C 675.031 225.304, 679.971 224.551, 681.029 223.984 C 685.951 221.350, 685.914 214.041, 680.966 211.483 C 679.089 210.512, 675.149 210, 669.550 210 L 661 210 661 218.150" stroke="none" fill="#ffffff" fill-rule="evenodd"/></svg>