<svg width="28" height="28" viewBox="0 0 28 28" fill="none" xmlns="http://www.w3.org/2000/svg">
<path fill-rule="evenodd" clip-rule="evenodd" d="M14 4.66666C8.84538 4.66666 4.66671 8.84534 4.66671 14C4.66671 19.1547 8.84538 23.3333 14 23.3333C19.1547 23.3333 23.3334 19.1547 23.3334 14C23.3334 8.84534 19.1547 4.66666 14 4.66666ZM2.33337 14C2.33337 7.55667 7.55672 2.33333 14 2.33333C20.4434 2.33333 25.6667 7.55667 25.6667 14C25.6667 20.4433 20.4434 25.6667 14 25.6667C7.55672 25.6667 2.33337 20.4433 2.33337 14ZM14 8.16666C14.6444 8.16666 15.1667 8.689 15.1667 9.33333V14C15.1667 14.6443 14.6444 15.1667 14 15.1667C13.3557 15.1667 12.8334 14.6443 12.8334 14V9.33333C12.8334 8.689 13.3557 8.16666 14 8.16666Z" fill="#EA3354"/>
<path d="M15.1667 18.6667C15.1667 19.311 14.6444 19.8333 14 19.8333C13.3557 19.8333 12.8334 19.311 12.8334 18.6667C12.8334 18.0223 13.3557 17.5 14 17.5C14.6444 17.5 15.1667 18.0223 15.1667 18.6667Z" fill="#EA3354"/>
</svg>
