<svg width="30" height="30" viewBox="0 0 30 30" fill="none" xmlns="http://www.w3.org/2000/svg">
<g id="Pipe_fill">
<path id="Subtract" fill-rule="evenodd" clip-rule="evenodd" d="M10.9913 5.83584C7.46412 7.38091 4.99994 10.9027 4.99994 15C4.99994 15.3754 5.02063 15.7461 5.06093 16.1108L13.1628 13.9399L10.9913 5.83584ZM13.8895 5.06094L16.19 13.6464L16.2017 13.6898C16.2517 13.8755 16.3222 14.1374 16.3531 14.3776C16.3921 14.6803 16.4013 15.1591 16.1196 15.647C15.8379 16.1349 15.4187 16.3663 15.137 16.4839C14.9136 16.5772 14.6515 16.6471 14.4656 16.6966L14.4222 16.7082L5.83594 19.0089C7.38109 22.536 10.9028 25 14.9999 25C20.5228 25 24.9999 20.5228 24.9999 15C24.9999 9.47714 20.5228 4.99999 14.9999 4.99999C14.6246 4.99999 14.2541 5.02067 13.8895 5.06094Z" fill="#0E4096"/>
<path id="Ellipse 52" d="M12.2824 4.85778C12.0323 3.9245 11.9073 3.45786 11.4901 3.25962C11.0729 3.06138 10.6761 3.23945 9.88245 3.59558C8.99891 3.99206 8.16236 4.4908 7.39048 5.08308C6.08817 6.08238 4.99544 7.3284 4.17468 8.75C3.35392 10.1716 2.8212 11.7409 2.60694 13.3684C2.47995 14.333 2.4663 15.3069 2.56471 16.2703C2.65311 17.1357 2.69731 17.5684 3.07759 17.8305C3.45786 18.0927 3.9245 17.9677 4.85778 17.7176L13.0681 15.5176C13.9788 15.2736 14.4342 15.1516 14.6413 14.7929C14.8484 14.4342 14.7264 13.9788 14.4824 13.0681L12.2824 4.85778Z" fill="#0E4096"/>
</g>
</svg>
