<svg width="45" height="45" viewBox="0 0 45 45" fill="none" xmlns="http://www.w3.org/2000/svg">
<path d="M5.625 22.5C5.625 13.1802 13.1802 5.625 22.5 5.625C31.8198 5.625 39.375 13.1802 39.375 22.5C39.375 31.8198 31.8198 39.375 22.5 39.375C13.1802 39.375 5.625 31.8198 5.625 22.5Z" fill="#7E869E" fill-opacity="0.25"/>
<circle cx="22.5" cy="18.75" r="7.5" fill="#222222"/>
<path fill-rule="evenodd" clip-rule="evenodd" d="M34.2493 34.3552C34.306 34.4524 34.2883 34.5754 34.2073 34.6535C31.1729 37.5771 27.0464 39.375 22.5 39.375C17.9537 39.375 13.8273 37.5772 10.793 34.6536C10.7119 34.5756 10.6943 34.4525 10.7509 34.3553C12.903 30.6617 17.356 28.125 22.5002 28.125C27.6443 28.125 32.0972 30.6616 34.2493 34.3552Z" fill="#222222"/>
</svg>
